<svg width="800" height="600" viewBox="0 0 800 600" fill="none" xmlns="http://www.w3.org/2000/svg">
  <defs>
    <linearGradient id="bg" x1="0" y1="0" x2="800" y2="600" gradientUnits="userSpaceOnUse">
      <stop stop-color="#F8FAFC"/>
      <stop offset="1" stop-color="#EEF2FF"/>
    </linearGradient>
    <linearGradient id="accent" x1="140" y1="120" x2="650" y2="500" gradientUnits="userSpaceOnUse">
      <stop stop-color="#0071E3"/>
      <stop offset="1" stop-color="#34C759"/>
    </linearGradient>
  </defs>
  <rect width="800" height="600" rx="48" fill="url(#bg)"/>
  <circle cx="628" cy="118" r="88" fill="#DCEBFF"/>
  <circle cx="166" cy="470" r="126" fill="#EAF6EE"/>
  <rect x="86" y="118" width="258" height="64" rx="24" fill="white" opacity="0.84"/>
  <rect x="86" y="202" width="196" height="16" rx="8" fill="#C7D2FE"/>
  <rect x="86" y="232" width="226" height="16" rx="8" fill="#DBEAFE"/>
  <rect x="86" y="262" width="184" height="16" rx="8" fill="#E2E8F0"/>
  <rect x="86" y="318" width="292" height="214" rx="34" fill="white" opacity="0.88" stroke="#E5E7EB"/>
  <circle cx="222" cy="412" r="76" fill="url(#accent)" opacity="0.14"/>
  <circle cx="220" cy="392" r="42" fill="#1D1D1F"/>
  <path d="M190 492C202 456 238 436 270 438C296 440 320 458 334 488" stroke="#1D1D1F" stroke-width="18" stroke-linecap="round"/>
  <rect x="468" y="96" width="242" height="372" rx="42" fill="white" opacity="0.92" stroke="#E5E7EB"/>
  <rect x="500" y="132" width="176" height="16" rx="8" fill="#0071E3" opacity="0.22"/>
  <rect x="500" y="166" width="128" height="16" rx="8" fill="#0071E3" opacity="0.15"/>
  <rect x="500" y="224" width="170" height="16" rx="8" fill="#34C759" opacity="0.18"/>
  <rect x="500" y="258" width="104" height="16" rx="8" fill="#34C759" opacity="0.14"/>
  <rect x="500" y="318" width="142" height="16" rx="8" fill="#F97316" opacity="0.18"/>
  <rect x="500" y="352" width="92" height="16" rx="8" fill="#F97316" opacity="0.14"/>
  <rect x="500" y="396" width="82" height="18" rx="9" fill="#1D1D1F" opacity="0.1"/>
</svg>
