<svg width="800" height="600" viewBox="0 0 800 600" fill="none" xmlns="http://www.w3.org/2000/svg">
  <defs>
    <linearGradient id="bg" x1="0" y1="0" x2="800" y2="600" gradientUnits="userSpaceOnUse">
      <stop stop-color="#F8FAFC"/>
      <stop offset="1" stop-color="#FFF7ED"/>
    </linearGradient>
  </defs>
  <rect width="800" height="600" rx="48" fill="url(#bg)"/>
  <rect x="96" y="110" width="300" height="332" rx="36" fill="white" opacity="0.9" stroke="#E5E7EB"/>
  <rect x="132" y="146" width="212" height="18" rx="9" fill="#F97316" opacity="0.22"/>
  <rect x="132" y="192" width="164" height="18" rx="9" fill="#E2E8F0"/>
  <rect x="132" y="236" width="220" height="78" rx="22" fill="#FFF7ED" stroke="#FDBA74"/>
  <path d="M244 258C228 274 224 288 231 300C239 314 255 320 273 316C288 313 300 302 304 288C308 274 300 260 284 248C280 264 272 272 260 274C252 275 246 270 244 258Z" fill="#F97316"/>
  <circle cx="556" cy="194" r="98" fill="#FFEDD5"/>
  <path d="M556 134C527 166 523 190 532 216C541 242 563 266 587 276C613 264 624 246 624 220C624 184 602 149 556 134Z" fill="#F97316"/>
  <rect x="490" y="332" width="148" height="16" rx="8" fill="#F97316" opacity="0.22"/>
  <rect x="490" y="366" width="190" height="16" rx="8" fill="#E2E8F0"/>
</svg>
