<svg width="800" height="600" viewBox="0 0 800 600" fill="none" xmlns="http://www.w3.org/2000/svg">
  <defs>
    <linearGradient id="bg" x1="0" y1="0" x2="800" y2="600" gradientUnits="userSpaceOnUse">
      <stop stop-color="#F8FAFC"/>
      <stop offset="1" stop-color="#EFF6FF"/>
    </linearGradient>
  </defs>
  <rect width="800" height="600" rx="48" fill="url(#bg)"/>
  <rect x="92" y="110" width="268" height="332" rx="36" fill="white" opacity="0.9" stroke="#E5E7EB"/>
  <rect x="124" y="146" width="138" height="18" rx="9" fill="#0071E3" opacity="0.22"/>
  <rect x="124" y="184" width="182" height="18" rx="9" fill="#E2E8F0"/>
  <rect x="124" y="230" width="200" height="54" rx="18" fill="#DBEAFE"/>
  <rect x="124" y="298" width="164" height="54" rx="18" fill="#F3F4F6"/>
  <rect x="408" y="104" width="300" height="372" rx="40" fill="white" opacity="0.92" stroke="#E5E7EB"/>
  <circle cx="558" cy="208" r="98" fill="#DBEAFE"/>
  <rect x="516" y="160" width="84" height="160" rx="24" fill="#1D1D1F" opacity="0.88"/>
  <rect x="540" y="188" width="36" height="102" rx="14" fill="#F97316"/>
  <rect x="520" y="342" width="76" height="18" rx="9" fill="#0071E3" opacity="0.24"/>
  <rect x="520" y="376" width="116" height="18" rx="9" fill="#E2E8F0"/>
  <rect x="520" y="410" width="86" height="18" rx="9" fill="#D1FAE5"/>
</svg>
