<svg width="800" height="600" viewBox="0 0 800 600" fill="none" xmlns="http://www.w3.org/2000/svg">
  <defs>
    <linearGradient id="bg" x1="0" y1="0" x2="800" y2="600" gradientUnits="userSpaceOnUse">
      <stop stop-color="#F8FAFC"/>
      <stop offset="1" stop-color="#ECFEFF"/>
    </linearGradient>
  </defs>
  <rect width="800" height="600" rx="48" fill="url(#bg)"/>
  <circle cx="640" cy="132" r="92" fill="#D8F3FF"/>
  <circle cx="166" cy="468" r="116" fill="#E0F2FE"/>
  <rect x="102" y="110" width="250" height="160" rx="30" fill="white" opacity="0.9" stroke="#E5E7EB"/>
  <rect x="132" y="142" width="80" height="16" rx="8" fill="#0071E3" opacity="0.22"/>
  <rect x="132" y="174" width="164" height="16" rx="8" fill="#E2E8F0"/>
  <rect x="132" y="206" width="124" height="16" rx="8" fill="#DBEAFE"/>
  <rect x="380" y="98" width="320" height="392" rx="40" fill="white" opacity="0.9" stroke="#E5E7EB"/>
  <rect x="416" y="138" width="110" height="110" rx="28" fill="#0071E3" opacity="0.12"/>
  <rect x="546" y="138" width="110" height="110" rx="28" fill="#34C759" opacity="0.12"/>
  <rect x="416" y="268" width="110" height="110" rx="28" fill="#F97316" opacity="0.12"/>
  <rect x="546" y="268" width="110" height="110" rx="28" fill="#8B5CF6" opacity="0.12"/>
  <circle cx="471" cy="193" r="32" fill="#0071E3"/>
  <circle cx="601" cy="193" r="32" fill="#34C759"/>
  <circle cx="471" cy="323" r="32" fill="#F97316"/>
  <circle cx="601" cy="323" r="32" fill="#8B5CF6"/>
  <path d="M471 193L601 193M471 323L601 323M471 193L471 323M601 193L601 323" stroke="#CBD5E1" stroke-width="5" stroke-linecap="round"/>
  <rect x="126" y="322" width="196" height="24" rx="12" fill="#DBEAFE"/>
  <rect x="126" y="362" width="160" height="24" rx="12" fill="#E2E8F0"/>
  <rect x="126" y="402" width="220" height="24" rx="12" fill="#D1FAE5"/>
</svg>
