<?xml version="1.0" standalone="no"?>
<!DOCTYPE svg PUBLIC "-//W3C//DTD SVG 20010904//EN"
 "http://www.w3.org/TR/2001/REC-SVG-20010904/DTD/svg10.dtd">
<svg version="1.0" xmlns="http://www.w3.org/2000/svg"
 width="626.000000pt" height="539.000000pt" viewBox="0 0 626.000000 539.000000"
 preserveAspectRatio="xMidYMid meet">

<g transform="translate(0.000000,539.000000) scale(0.100000,-0.100000)"
fill="#000000" stroke="none">
<path d="M0 2695 l0 -2695 3130 0 3130 0 0 2695 0 2695 -3130 0 -3130 0 0
-2695z m3495 2206 c33 -10 103 -39 155 -64 52 -25 129 -61 170 -80 97 -45 538
-220 660 -263 52 -18 151 -57 220 -88 69 -31 133 -56 142 -56 9 0 20 -5 24
-11 9 -15 166 -89 188 -89 9 0 16 -4 16 -10 0 -5 53 -45 118 -89 66 -44 152
-107 193 -142 87 -74 259 -240 259 -251 0 -5 -9 -8 -20 -8 -12 0 -17 5 -14 13
2 7 -16 32 -41 56 -25 23 -45 36 -46 29 -1 -7 -4 -3 -7 10 -11 37 -27 26 -31
-20 l-5 -43 -5 50 c-5 38 -10 51 -25 53 -23 5 -165 -28 -172 -40 -3 -5 2 -19
13 -30 18 -21 18 -21 -6 -7 -20 12 -24 12 -29 0 -3 -11 -6 -11 -12 0 -7 10
-12 10 -26 -2 -16 -13 -16 -12 -5 9 11 21 10 22 -36 24 l-48 2 48 3 c45 4 61
15 35 26 -7 3 -62 42 -123 87 l-110 82 -6 -94 -5 -93 -3 70 c-2 39 -6 81 -10
94 -6 23 -7 22 -61 -25 -30 -27 -75 -67 -99 -90 l-44 -42 54 -7 c30 -5 106
-11 169 -15 63 -4 92 -8 63 -8 -41 -2 -55 -7 -67 -24 -9 -12 -16 -18 -16 -12
0 5 5 15 10 20 11 11 -90 24 -177 24 -43 0 -43 -6 10 -165 l44 -130 22 50 c12
28 32 72 43 98 11 26 22 46 25 44 2 -2 -15 -44 -36 -93 -24 -53 -36 -91 -29
-93 6 -2 5 -6 -3 -12 -10 -6 -9 -12 6 -31 17 -19 17 -21 2 -8 -16 12 -20 12
-28 -1 -7 -11 -9 -11 -9 3 0 14 -19 5 -84 -37 -46 -30 -88 -55 -93 -55 -5 0
-88 -22 -184 -50 -167 -48 -180 -50 -324 -54 -223 -5 -343 -34 -522 -124 -76
-38 -190 -94 -253 -125 -63 -31 -126 -62 -140 -70 -78 -46 -319 -149 -401
-172 l-96 -27 -51 26 c-28 14 -57 26 -65 26 -11 0 -47 48 -47 64 0 14 19 5 24
-11 2 -10 4 2 3 27 -1 36 -6 47 -25 58 -29 14 -52 16 -52 3 0 -5 -14 -2 -32 7
-41 20 -26 25 46 14 48 -8 56 -7 56 7 0 9 25 54 55 100 58 89 63 101 42 101
-8 0 -14 7 -14 15 0 8 19 19 49 26 26 7 59 24 72 38 l25 26 -38 55 c-20 30
-47 80 -60 110 -13 30 -29 69 -36 85 -7 17 -21 62 -31 100 -9 39 -20 74 -24
78 -9 11 -65 -77 -85 -132 -18 -53 -19 -61 -2 -61 18 0 69 -57 58 -65 -6 -3
-15 4 -21 16 -9 16 -15 18 -23 10 -8 -8 -8 -14 -2 -19 14 -10 17 -32 5 -32 -6
0 -10 6 -10 13 -1 6 -8 1 -16 -13 -8 -14 -13 -17 -10 -7 3 9 1 17 -4 17 -6 0
-10 -9 -10 -20 0 -19 9 -24 36 -21 16 2 57 -46 51 -61 -4 -9 -6 -8 -6 3 -1 25
-52 35 -68 13 -7 -9 -10 -20 -8 -25 3 -4 1 -10 -5 -14 -6 -4 -10 5 -10 22 0
25 -1 26 -16 11 -13 -12 -14 -20 -5 -37 7 -11 16 -21 21 -21 6 0 10 -7 10 -15
0 -9 -9 -15 -24 -15 -12 0 -34 -11 -47 -24 -57 -59 -59 -62 -47 -74 7 -7 8
-12 2 -12 -5 0 -15 5 -20 10 -8 8 -24 0 -54 -25 -56 -47 -69 -53 -116 -57
l-39 -3 -7 110 c-5 61 -12 120 -18 133 -6 14 -7 30 -1 40 5 9 14 60 20 112 13
100 63 279 112 393 17 39 42 136 60 228 l32 160 46 35 c25 20 50 42 54 50 5 8
11 12 15 10 4 -3 48 23 97 56 162 108 462 286 405 239 -14 -11 -40 -28 -58
-38 l-33 -18 88 -22 c86 -22 72 -24 -52 -7 l-44 7 30 -92 c17 -50 34 -91 39
-91 4 0 18 8 31 18 75 57 102 76 96 66 -4 -7 -30 -29 -58 -50 l-50 -39 58 -6
58 -6 -56 -1 c-43 -2 -58 -6 -63 -19 -5 -13 47 -197 60 -212 3 -3 19 9 37 25
l32 29 -29 -32 c-16 -18 -28 -35 -25 -37 2 -2 25 -13 52 -25 55 -25 64 -39 10
-15 -21 9 -44 18 -51 21 -8 3 3 -21 24 -53 58 -92 53 -89 92 -52 l35 33 -28
-38 c-28 -38 -28 -38 -7 -44 12 -3 22 -9 22 -14 0 -5 -8 -5 -17 -2 -16 6 44
-66 103 -124 28 -28 31 -28 37 -5 3 10 5 6 6 -10 0 -16 -2 -28 -5 -28 -4 0
-45 37 -91 83 l-85 82 7 -70 c4 -38 18 -94 31 -124 26 -59 22 -59 89 -2 17 14
10 5 -14 -21 -41 -44 -43 -48 -36 -89 4 -24 13 -54 21 -66 l14 -22 78 33 c141
61 235 118 239 145 5 32 -25 121 -41 121 -6 0 -27 -13 -46 -29 l-34 -28 42
-22 c23 -12 42 -24 42 -27 0 -2 -10 1 -22 7 -13 7 -48 21 -78 30 -30 10 -47
18 -37 18 20 1 21 5 6 34 -9 19 -8 19 9 -2 l20 -25 42 28 c45 30 45 35 -3 54
l-32 12 39 -6 c38 -5 39 -5 25 14 -54 75 -57 83 -15 37 l46 -49 0 94 c0 52 -3
112 -6 133 -6 32 -9 35 -22 25 -13 -11 -14 -10 -8 10 7 22 6 22 -92 22 -73 0
-114 5 -157 20 -71 24 -85 25 -85 3 0 -15 -2 -15 -14 2 -12 17 -16 18 -32 5
-16 -14 -16 -13 -4 9 11 22 10 27 -21 53 l-34 30 39 -26 c25 -16 44 -22 51
-16 12 10 37 -2 36 -16 -1 -5 24 -17 55 -28 l56 -18 31 28 31 29 -17 -27 c-9
-15 -17 -29 -17 -30 0 -8 135 5 138 12 2 5 10 6 19 3 12 -5 14 -1 8 15 -8 26
10 29 24 5 9 -17 11 -17 25 2 15 19 15 19 16 -7 0 -14 6 -28 13 -31 10 -4 10
-7 0 -18 -7 -7 -13 -31 -13 -52 0 -34 2 -38 15 -27 9 7 19 10 23 6 4 -4 -1
-13 -11 -20 -21 -16 -22 -26 -2 -26 8 0 15 -7 15 -16 0 -10 -6 -13 -17 -10
-15 5 -18 -2 -21 -47 -1 -32 1 -47 6 -39 7 11 10 10 16 -3 3 -9 6 -25 6 -36 0
-16 8 -19 48 -20 l47 -1 -44 -9 c-24 -5 -46 -10 -48 -12 -14 -15 0 -142 15
-133 4 2 13 -2 20 -10 11 -12 10 -14 -3 -14 -10 0 -15 -10 -16 -27 0 -28 0
-28 -10 -5 l-9 24 -57 -33 c-112 -64 -113 -65 -101 -77 9 -9 6 -12 -15 -12
-22 0 -34 -10 -57 -47 -17 -26 -30 -51 -30 -56 0 -5 21 -7 48 -4 46 6 47 6 10
-5 -21 -5 -38 -13 -38 -17 0 -8 209 -75 214 -69 16 21 64 123 61 128 -3 5 -13
7 -23 5 -9 -1 -11 0 -4 2 7 3 9 9 6 15 -4 6 1 8 15 3 13 -4 21 -2 21 5 0 6 4
9 9 5 9 -5 176 125 193 150 5 6 -7 12 -30 16 l-37 6 37 2 c43 1 53 12 38 43
-9 19 -6 18 15 -6 l27 -29 136 69 c85 43 129 70 117 72 -11 1 -60 7 -110 12
l-90 9 118 -4 118 -4 -82 99 c-45 55 -88 100 -97 100 -8 0 -42 -23 -74 -51
-32 -28 -58 -47 -58 -42 1 4 26 28 55 53 30 24 55 49 55 56 0 6 -10 16 -22 22
-22 11 -21 11 5 6 15 -4 27 -2 27 2 0 23 -54 244 -60 244 -14 0 -140 -139
-140 -154 0 -8 17 -25 38 -36 20 -12 28 -18 17 -14 -11 4 -32 9 -47 12 -28 4
-28 4 -29 -59 l-2 -64 -6 57 c-3 31 -9 60 -13 63 -4 4 -28 -5 -53 -19 -53 -31
-61 -28 -10 4 19 12 33 26 30 30 -3 5 2 13 11 18 14 8 14 13 4 33 l-13 24 25
-23 25 -23 76 82 c42 46 75 84 73 86 -9 10 -276 14 -276 4 0 -5 4 -13 10 -16
5 -3 15 -16 21 -28 6 -13 -2 -8 -19 12 -28 32 -30 33 -41 15 -11 -17 -11 -17
-5 5 6 21 4 23 -28 17 l-33 -5 33 11 33 11 -28 24 c-23 20 -24 22 -3 9 13 -9
27 -16 30 -16 4 0 -3 158 -9 203 -1 4 -10 7 -22 7 -26 0 -169 -50 -169 -59 0
-4 32 -31 70 -60 39 -28 70 -54 70 -57 0 -5 -66 40 -110 75 -35 29 -42 26 -36
-16 6 -37 5 -37 -7 5 -12 42 -12 42 -31 25 -11 -10 -15 -11 -9 -3 6 8 16 31
21 50 7 25 10 28 11 13 l1 -22 63 24 c35 13 79 30 98 38 l34 14 -90 45 c-133
65 -121 66 -119 -11 l3 -66 -11 60 c-6 33 -12 62 -14 63 -3 5 -69 -68 -123
-137 l-43 -56 28 -5 29 -6 -33 -7 c-29 -6 -32 -9 -27 -34 6 -27 6 -27 -10 -8
-15 19 -16 20 -48 2 l-32 -19 24 26 23 25 -33 10 -34 9 36 1 c34 1 36 3 32 29
-3 26 -3 26 8 5 7 -13 16 -23 21 -23 8 0 131 151 150 184 9 17 7 18 -38 13
l-49 -6 37 12 c51 17 54 23 17 36 -29 10 -38 8 -88 -20 -63 -35 -59 -27 11 19
26 17 75 41 110 53 35 12 67 26 73 31 14 12 44 10 110 -11z m-85 -190 c0 -6
-4 -13 -10 -16 -5 -3 -10 1 -10 9 0 9 5 16 10 16 6 0 10 -4 10 -9z m135 -21
c3 -5 1 -10 -4 -10 -6 0 -11 5 -11 10 0 6 2 10 4 10 3 0 8 -4 11 -10z m-202
-97 c-7 -2 -19 -2 -25 0 -7 3 -2 5 12 5 14 0 19 -2 13 -5z m-60 -10 c-7 -2
-19 -2 -25 0 -7 3 -2 5 12 5 14 0 19 -2 13 -5z m57 -36 c0 -2 -10 -12 -22 -23
l-23 -19 19 23 c18 21 26 27 26 19z m112 -151 c8 5 9 1 5 -10 -4 -10 -7 -22
-7 -27 0 -6 -5 -7 -11 -4 -5 4 -20 -1 -32 -12 -12 -10 -17 -12 -10 -3 7 10 8
21 3 30 -6 10 -3 20 8 31 14 13 18 14 25 2 5 -7 13 -10 19 -7z m-446 -38 l19
-21 -27 18 c-29 18 -34 25 -20 25 5 0 17 -10 28 -22z m904 -198 c8 -5 11 -10
5 -10 -5 0 -17 5 -25 10 -8 5 -10 10 -5 10 6 0 17 -5 25 -10z m-492 -78 c9 9
11 4 9 -19 -1 -17 -6 -29 -10 -26 -5 3 -15 -3 -23 -13 -15 -18 -15 -18 -11 4
3 12 2 22 -3 22 -4 0 -7 11 -6 24 1 22 3 23 17 10 11 -10 18 -11 27 -2z m432
-85 c0 -2 -10 -12 -22 -23 l-23 -19 19 23 c18 21 26 27 26 19z m-610 -37 c0
-5 -2 -10 -4 -10 -3 0 -8 5 -11 10 -3 6 -1 10 4 10 6 0 11 -4 11 -10z m125
-30 c3 -5 1 -10 -4 -10 -6 0 -11 5 -11 10 0 6 2 10 4 10 3 0 8 -4 11 -10z
m-35 -60 c0 -5 -5 -10 -11 -10 -5 0 -7 5 -4 10 3 6 8 10 11 10 2 0 4 -4 4 -10z
m-102 -57 c-10 -2 -28 -2 -40 0 -13 2 -5 4 17 4 22 1 32 -1 23 -4z m432 -7 c0
-2 -8 -10 -17 -17 -16 -13 -17 -12 -4 4 13 16 21 21 21 13z m1665 -6 c3 -5 1
-10 -4 -10 -6 0 -11 5 -11 10 0 6 2 10 4 10 3 0 8 -4 11 -10z m65 -144 c0 -3
-4 -8 -10 -11 -5 -3 -10 -1 -10 4 0 6 5 11 10 11 6 0 10 -2 10 -4z m-130 -17
c0 -6 7 -8 16 -5 11 4 15 2 11 -8 -3 -7 0 -19 6 -26 9 -10 7 -11 -10 -5 -19 5
-22 3 -17 -12 5 -16 4 -16 -8 -2 -7 9 -20 14 -28 11 -13 -4 -13 -3 -2 11 11
13 10 16 -5 20 -14 4 -13 5 5 6 13 0 20 6 17 11 -3 6 -1 10 4 10 6 0 11 -5 11
-11z m-325 -49 c-3 -5 -12 -10 -18 -10 -7 0 -6 4 3 10 19 12 23 12 15 0z
m-1382 -67 c-7 -2 -19 -2 -25 0 -7 3 -2 5 12 5 14 0 19 -2 13 -5z m-56 -9 c-3
-3 -12 -4 -19 -1 -8 3 -5 6 6 6 11 1 17 -2 13 -5z m1852 -74 l-47 -40 15 -53
c9 -28 19 -56 23 -62 4 -5 5 -18 1 -28 -5 -13 -13 6 -25 58 l-18 77 -31 -29
-31 -28 23 30 23 30 -34 6 -33 6 38 2 c28 1 37 5 37 19 0 12 3 13 8 4 6 -9 18
-5 48 18 56 42 57 36 3 -10z m84 -39 c-18 -15 -33 -30 -33 -33 0 -3 14 -11 30
-18 17 -7 29 -14 27 -16 -6 -7 -77 26 -77 35 0 8 69 60 80 60 3 0 -10 -12 -27
-28z m-398 -18 c1 -12 -2 -20 -6 -17 -4 2 -12 -4 -18 -13 -10 -17 -10 -17 -11
0 0 9 -5 17 -11 17 -8 0 -9 4 0 13 6 8 7 17 3 21 -4 5 4 6 17 4 17 -2 25 -10
26 -25z m685 -11 c0 -7 -8 -12 -17 -10 -24 4 -27 24 -3 24 11 0 20 -6 20 -14z
m-866 -67 c42 22 44 18 6 -13 l-34 -29 28 -49 28 -49 -26 30 c-51 58 -116 144
-116 152 0 4 14 -7 30 -26 22 -24 30 -29 31 -17 1 9 3 21 4 26 1 6 4 18 5 28
2 9 6 -2 9 -25 l6 -43 29 15z m-2224 11 c0 -3 -4 -8 -10 -11 -5 -3 -10 -1 -10
4 0 6 5 11 10 11 6 0 10 -2 10 -4z m2648 -50 c0 -24 -1 -24 -24 -9 -13 8 -24
19 -24 24 0 5 11 9 24 9 18 0 24 -5 24 -24z m119 -8 c-3 -8 -6 -5 -6 6 -1 11
2 17 5 13 3 -3 4 -12 1 -19z m-2797 -78 c0 -5 -4 -10 -10 -10 -5 0 -10 5 -10
10 0 6 5 10 10 10 6 0 10 -4 10 -10z m-215 -10 c13 -6 15 -9 5 -9 -8 0 -22 4
-30 9 -18 12 -2 12 25 0z m40 1 c3 -5 1 -12 -5 -16 -5 -3 -10 1 -10 9 0 18 6
21 15 7z m215 -31 c0 -5 -2 -10 -4 -10 -3 0 -8 5 -11 10 -3 6 -1 10 4 10 6 0
11 -4 11 -10z m2690 -18 c0 -21 -7 -32 -27 -41 -23 -11 -25 -10 -14 3 7 9 11
23 7 31 -3 9 0 15 9 15 8 0 15 5 15 10 0 6 2 10 5 10 3 0 5 -13 5 -28z m-330
-36 c0 -3 -4 -8 -10 -11 -5 -3 -10 -1 -10 4 0 6 5 11 10 11 6 0 10 -2 10 -4z
m-2607 -25 c-4 -16 2 -22 28 -30 32 -9 31 -9 -23 -10 -32 -1 -58 3 -58 8 0 14
-37 20 -49 8 -8 -8 -11 -8 -11 1 0 7 -5 12 -11 12 -5 0 -7 -4 -4 -10 3 -5 0
-10 -7 -11 -19 -1 123 -48 147 -49 11 0 27 -4 35 -10 9 -6 -11 -7 -55 -3 -39
3 -72 8 -75 12 -8 10 -50 6 -48 -4 1 -6 8 -9 15 -7 17 4 16 -13 -1 -27 -11
-10 -20 -6 -44 16 -16 15 -38 33 -48 39 -18 11 -17 12 9 24 15 7 27 19 27 26
0 20 40 26 90 15 35 -8 49 -7 65 4 11 8 21 14 22 14 0 1 -1 -8 -4 -18z m3307
9 c8 -5 11 -12 8 -16 -4 -3 -14 1 -23 10 -18 17 -9 21 15 6z m-3196 -106 c26
-10 18 -21 -13 -20 -22 1 -27 4 -19 14 12 14 11 14 32 6z m2697 -144 c1 35 1
35 13 -10 21 -76 8 -77 -42 -3 l-34 48 31 -35 31 -34 1 34z m-3753 -10 c24
-15 32 -27 32 -49 0 -16 -7 -34 -15 -41 -21 -17 -19 -33 6 -48 62 -39 171
-138 198 -181 18 -27 39 -55 47 -62 10 -8 11 -15 3 -25 -10 -13 -39 -108 -39
-131 0 -8 13 -13 30 -13 23 0 30 -4 30 -20 0 -14 10 -22 33 -28 24 -6 33 -14
35 -34 3 -23 -1 -26 -46 -32 -28 -3 -56 -13 -62 -21 -16 -19 -8 -143 15 -230
21 -79 155 -347 171 -341 19 7 47 -30 40 -52 -7 -21 10 -44 138 -187 l44 -50
-13 -59 c-8 -32 -23 -68 -34 -80 -15 -16 -17 -25 -10 -39 18 -30 3 -45 -83
-86 -64 -31 -108 -43 -193 -56 -60 -9 -111 -17 -112 -19 -2 -1 234 -4 524 -5
448 -1 532 1 556 13 15 9 25 11 22 7 -2 -5 11 -12 29 -15 19 -4 463 -6 988 -6
524 1 1077 0 1228 -1 l275 -2 -160 -9 c-88 -5 -161 -13 -163 -19 -2 -5 -17 -9
-33 -9 -16 0 -29 -4 -29 -10 0 -5 -7 -7 -15 -4 -8 4 -31 3 -51 -1 l-37 -6 44
-47 44 -46 -57 47 c-52 43 -60 47 -111 47 -49 0 -59 -4 -103 -42 -90 -77 -99
-82 -38 -21 l60 61 -30 6 c-47 8 -165 10 -172 3 -8 -8 -24 1 -24 13 0 5 8 11
18 13 9 3 -30 5 -88 5 -66 0 -96 -3 -80 -8 17 -5 -3 -8 -62 -9 l-87 -1 52 -50
c67 -65 52 -65 -23 0 -35 30 -67 50 -82 50 -16 0 -42 -19 -78 -55 -69 -70 -87
-72 -25 -3 44 49 45 52 26 60 -32 11 -379 31 -430 24 -24 -3 -50 -11 -58 -17
-11 -9 -12 -8 -7 5 6 15 -12 16 -237 10 -134 -3 -269 -9 -299 -13 l-55 -7 53
-18 c78 -26 56 -31 -32 -7 -76 21 -116 26 -116 15 0 -3 18 -32 41 -65 22 -33
39 -62 37 -64 -2 -2 -28 27 -57 65 -29 39 -60 70 -69 70 -10 0 -46 -30 -80
-67 -68 -72 -73 -68 -10 8 21 25 38 49 38 53 0 5 -72 6 -160 5 -87 -2 -152 -1
-142 3 9 4 -12 6 -48 6 -50 0 -58 -2 -35 -8 l30 -8 -32 -1 c-17 0 -35 4 -38 9
-3 6 -11 10 -17 10 -7 0 4 -14 23 -31 l34 -31 -49 25 c-57 29 -108 23 -141
-15 -11 -13 -40 -46 -63 -73 -39 -44 -38 -42 7 16 28 37 51 70 51 73 0 3 -61
6 -136 6 -155 0 -146 9 -99 -95 34 -76 21 -64 -25 23 l-35 67 -68 3 c-45 2
-87 -3 -120 -14 -80 -26 -86 -26 -32 0 l50 24 -87 7 c-48 4 -85 11 -82 16 3 5
-4 9 -15 9 -12 0 -21 -4 -21 -10 0 -5 -7 -10 -15 -10 -8 0 -15 5 -15 10 0 6
-9 10 -20 10 -11 0 -20 -6 -20 -12 0 -9 -3 -10 -8 -2 -10 16 -362 30 -362 14
0 -6 -4 -8 -10 -5 -6 3 -10 -4 -10 -17 l0 -23 -18 23 c-16 20 -21 22 -46 12
-26 -9 -27 -9 -16 5 10 12 9 15 -5 15 -10 0 -16 3 -12 6 3 3 125 5 271 5 l266
-2 -6 31 c-6 27 -4 30 12 23 11 -3 26 -15 35 -25 22 -24 129 -27 129 -3 0 13
-7 17 -30 17 -3 1 -20 -2 -38 -6 -19 -3 -31 -2 -27 3 3 5 -1 11 -7 14 -22 8
-4 16 40 18 23 2 42 5 42 8 0 9 -31 54 -62 90 -27 31 -48 34 -48 6 0 -8 -5
-17 -12 -21 -8 -5 -9 -2 -5 9 8 22 -6 22 -26 -1 -13 -15 -14 -21 -4 -32 10
-10 9 -12 -5 -7 -22 8 -23 -2 -3 -30 15 -22 15 -22 -15 -11 -20 7 -42 28 -65
63 l-34 53 52 137 c48 129 50 138 33 150 -14 11 -15 17 -6 34 6 12 16 21 24
21 14 0 32 133 42 311 5 87 3 116 -13 175 -11 39 -27 83 -36 100 -14 27 -20
29 -68 29 -44 0 -54 3 -57 18 -2 11 5 25 17 33 12 9 21 24 21 35 0 11 11 24
25 31 l25 11 -27 48 c-14 27 -34 57 -44 68 -14 15 -16 25 -9 53 5 18 11 53 12
78 2 25 5 47 9 50 9 8 77 114 104 163 15 26 15 28 -10 37 -14 5 -32 24 -40 42
-14 32 -13 34 18 60 18 15 34 28 37 28 3 0 20 -9 38 -20z m1064 -36 c-5 -10
-17 -19 -26 -20 -18 -3 -22 11 -6 21 8 5 7 12 -2 22 -11 14 -10 15 10 9 15 -5
22 -3 23 6 1 7 3 5 6 -4 2 -10 0 -25 -5 -34z m2783 -11 c3 -12 15 -23 28 -26
20 -4 19 -4 -4 -6 -30 -1 -40 14 -38 62 1 20 3 24 6 12 2 -11 6 -30 8 -42z
m-2921 -64 c11 0 15 -3 9 -6 -7 -2 -13 -11 -13 -18 0 -8 -6 -18 -13 -22 -15
-8 -92 -142 -86 -147 2 -2 18 -10 34 -19 l30 -16 -37 6 -38 6 -1 -49 c-1 -53
-4 -51 -14 9 l-6 37 -62 -41 c-78 -53 -74 -49 -58 -58 10 -7 9 -9 -3 -14 -28
-11 -26 9 9 84 19 41 51 111 72 157 30 65 41 82 58 81 16 -1 17 -2 3 -6 -18
-4 -24 -33 -11 -47 4 -4 6 -27 4 -51 -1 -25 0 -45 3 -45 8 0 86 117 86 129 0
6 -15 12 -32 13 l-33 1 33 4 c36 5 36 5 22 36 -10 22 -10 22 6 0 9 -13 26 -23
38 -24z m-14 -229 c0 -5 -2 -10 -4 -10 -3 0 -8 5 -11 10 -3 6 -1 10 4 10 6 0
11 -4 11 -10z m101 -109 c4 -27 4 -62 -1 -78 -4 -15 -9 -20 -9 -11 -1 11 -6
15 -16 12 -11 -5 -13 -2 -8 12 4 11 3 15 -5 10 -6 -3 -13 -2 -17 4 -3 5 1 10
9 10 18 0 21 22 5 53 -10 21 -10 21 5 3 15 -19 16 -18 16 14 0 46 11 30 21
-29z m-402 -45 l-20 -35 28 -16 c26 -15 26 -15 3 -9 -22 6 -23 5 -11 -10 12
-14 12 -16 -4 -10 -10 4 -21 1 -27 -7 -7 -11 -11 -11 -15 -1 -2 6 -11 12 -19
12 -8 0 -14 4 -14 9 0 23 14 41 30 41 10 0 28 14 40 30 29 40 34 38 9 -4z
m221 13 c0 -5 -7 -9 -15 -9 -15 0 -20 12 -9 23 8 8 24 -1 24 -14z m-103 -82
c10 4 14 2 9 -5 -3 -6 -2 -13 4 -17 15 -9 12 -22 -5 -29 -9 -3 -32 3 -52 14
l-36 19 27 7 c14 3 26 11 27 18 0 8 2 7 5 -1 3 -7 12 -9 21 -6z m-248 -103
c-18 -20 -21 -28 -10 -32 10 -3 11 -6 1 -12 -10 -6 -6 -20 15 -57 15 -26 29
-50 31 -52 7 -7 124 74 124 87 0 6 9 12 20 12 16 0 20 -6 18 -22 -5 -44 13
-139 28 -145 8 -3 37 4 64 15 65 27 64 19 -2 -14 l-52 -26 25 -14 c21 -13 21
-14 4 -13 -34 2 -38 0 -24 -18 10 -14 8 -13 -9 2 -23 19 -24 19 -55 1 -31 -17
-31 -17 -14 1 9 11 17 24 17 30 0 9 -120 67 -126 60 -1 -1 2 -27 7 -56 4 -30
7 -56 5 -58 -2 -2 -11 24 -20 57 l-17 60 -40 -46 c-21 -25 -39 -49 -39 -53 0
-4 25 -19 56 -34 63 -31 64 -41 4 -39 -22 1 -40 0 -40 -3 0 -2 14 -12 31 -20
17 -9 29 -19 26 -21 -7 -7 -115 43 -133 61 -15 14 -15 18 1 36 18 18 17 20 -2
42 -13 14 -23 43 -27 81 l-7 60 78 78 c74 75 113 107 62 52z m496 16 c3 -5 -1
-10 -10 -10 -9 0 -13 5 -10 10 3 6 8 10 10 10 2 0 7 -4 10 -10z m81 -33 c-3
-12 -6 -33 -7 -47 l0 -25 -11 23 c-7 13 -24 26 -39 29 -30 6 -30 29 -1 35 54
11 64 8 58 -15z m744 -115 c19 -15 21 -22 11 -40 -7 -13 -8 -23 -1 -27 16 -10
12 -52 -6 -59 -9 -3 -29 -6 -45 -6 l-29 0 0 75 c0 72 1 75 24 75 13 0 34 -8
46 -18z m150 -46 c0 -90 -34 -122 -80 -76 -15 15 -20 33 -20 75 0 76 18 70 22
-7 2 -51 6 -63 21 -66 33 -7 47 17 47 79 0 33 2 59 5 59 3 0 5 -29 5 -64z
m104 58 c26 -10 18 -19 -16 -19 -44 0 -43 -23 2 -44 43 -20 51 -52 18 -75 -28
-20 -39 -20 -63 -2 -17 12 -15 14 21 12 33 -1 39 2 42 21 3 17 -3 24 -22 29
-13 3 -32 14 -42 25 -16 18 -16 20 1 39 19 21 33 24 59 14z m168 -56 l33 -63
6 65 6 65 1 -77 c1 -46 -2 -78 -8 -78 -5 0 -23 26 -39 58 l-30 57 -1 -57 c0
-32 -4 -58 -10 -58 -11 0 -14 133 -3 143 10 11 11 10 45 -55z m168 52 c0 -5
-13 -10 -30 -10 -25 0 -30 -4 -30 -25 0 -20 5 -25 28 -26 l27 -2 -27 -4 c-23
-4 -28 -9 -28 -33 0 -25 4 -29 33 -33 31 -4 31 -4 -5 -5 l-38 -2 0 75 0 75 35
0 c19 0 35 -4 35 -10z m94 4 c9 -3 16 -10 16 -15 0 -6 -9 -5 -21 1 -15 9 -24
8 -35 -1 -22 -18 -17 -27 26 -49 41 -21 51 -45 28 -68 -14 -14 -74 -16 -82 -3
-3 4 11 8 32 7 30 -1 38 3 40 19 2 15 -7 25 -33 38 -36 17 -45 43 -23 65 13
13 28 15 52 6z m116 -5 c13 -9 12 -10 -2 -5 -52 16 -65 -33 -15 -55 26 -11 32
-20 32 -44 0 -27 -4 -30 -34 -33 -18 -2 -37 0 -42 5 -4 4 9 8 29 8 30 0 37 4
37 20 0 12 -11 25 -30 34 -47 22 -55 40 -29 65 18 19 33 20 54 5z m174 5 c9
-3 16 -10 16 -15 0 -6 -9 -5 -21 1 -15 9 -24 8 -35 -1 -22 -18 -17 -27 26 -49
41 -21 51 -45 28 -68 -14 -14 -74 -16 -82 -3 -3 4 11 8 32 7 30 -1 38 3 40 19
2 15 -7 25 -33 38 -36 17 -45 43 -23 65 13 13 28 15 52 6z m132 -6 c4 -5 -2
-8 -14 -8 -20 0 -22 -5 -22 -65 0 -37 -4 -65 -10 -65 -6 0 -10 28 -10 65 0 59
-2 65 -21 65 -11 0 -18 3 -15 8 6 10 82 9 92 0z m107 -5 c11 -7 8 -48 -5 -61
-10 -10 -8 -19 5 -42 10 -17 15 -30 10 -30 -4 0 -16 14 -25 30 -23 40 -46 39
-51 -2 -2 -18 -5 -1 -5 38 -1 39 1 74 4 77 7 6 49 0 67 -10z m457 6 c12 -8 10
-9 -7 -4 -40 11 -63 -11 -63 -58 0 -48 13 -67 47 -67 19 0 23 5 23 29 0 20 -6
31 -17 35 -11 3 -7 4 7 3 22 -2 25 -7 25 -37 0 -33 -2 -35 -37 -38 -28 -2 -40
2 -52 20 -23 33 -20 75 9 103 26 27 42 30 65 14z m-1340 -69 c0 -40 -4 -70
-10 -70 -6 0 -10 30 -10 70 0 40 4 70 10 70 6 0 10 -30 10 -70z m1005 -3 c13
-37 20 -67 16 -67 -5 0 -11 9 -14 20 -8 30 -64 28 -77 -2 -17 -44 -10 -1 11
61 12 34 26 60 31 59 5 -2 20 -34 33 -71z m98 66 c-21 -4 -23 -11 -25 -71 l-2
-67 -3 67 c-4 59 -6 67 -26 71 -12 2 1 4 28 4 28 0 40 -2 28 -4z m90 0 c-27
-4 -33 -9 -33 -29 0 -19 5 -24 28 -25 l27 -1 -25 -7 c-17 -5 -26 -15 -28 -33
-3 -24 0 -27 35 -31 l38 -4 -42 -1 -43 -2 0 70 0 70 38 -2 c36 -1 36 -1 5 -5z
m216 -30 l18 -37 21 40 c12 21 21 35 22 31 0 -4 -8 -22 -17 -40 -9 -18 -20
-48 -24 -67 -6 -32 -7 -32 -8 -7 0 15 -10 45 -21 67 -21 40 -24 50 -15 50 2 0
13 -17 24 -37z m-2651 -4 c-2 -6 -8 -10 -13 -10 -5 0 -11 4 -13 10 -2 6 4 11
13 11 9 0 15 -5 13 -11z m192 -211 c0 -23 -15 -36 -45 -44 -26 -6 -28 -5 -18
8 7 8 10 18 6 21 -3 4 3 7 15 7 11 0 24 5 27 10 8 14 15 13 15 -2z m-523 -43
c0 -8 -6 -15 -13 -15 -18 0 -27 17 -12 23 21 9 25 8 25 -8z m256 -42 c2 7 12
3 26 -10 l22 -20 -22 -6 c-21 -6 -89 20 -89 34 0 4 13 4 29 -1 20 -6 31 -5 34
3z m152 -13 c3 -5 1 -10 -4 -10 -6 0 -11 5 -11 10 0 6 2 10 4 10 3 0 8 -4 11
-10z m3060 -826 c-24 -18 -28 -18 -55 4 -21 17 -21 17 26 13 44 -3 46 -5 29
-17z m-2438 -10 c-3 -3 -12 -4 -19 -1 -8 3 -5 6 6 6 11 1 17 -2 13 -5z m-2255
-16 c-9 -9 -15 -9 -24 0 -9 9 -7 12 12 12 19 0 21 -3 12 -12z m1588 -25 c0 -7
-39 17 -46 28 -3 6 5 3 20 -6 14 -10 26 -19 26 -22z m1219 -55 c0 -13 -3 -17
-6 -10 -2 6 -14 12 -26 12 -18 0 -19 2 -7 10 25 16 40 11 39 -12z m1389 -38
c-6 -10 -19 -15 -29 -13 -25 7 -13 31 16 31 20 0 22 -3 13 -18z m-3894 -41
c-8 -14 -24 -10 -24 6 0 9 6 12 15 9 8 -4 12 -10 9 -15z m886 -30 c0 -15 -30
-23 -42 -11 -6 6 -7 15 -4 20 7 12 46 4 46 -9z m2395 11 c4 -6 12 -7 22 -1 10
5 21 5 28 -3 10 -8 5 -14 -19 -24 -20 -9 -32 -10 -34 -2 -2 5 -11 10 -20 11
-11 0 -12 2 -4 6 6 2 10 9 6 14 -3 5 -1 9 5 9 5 0 13 -5 16 -10z m-2904 -26
c19 -15 27 -24 19 -22 -57 19 -57 19 -67 -14 l-11 -33 -1 41 c-2 62 8 67 60
28z m3782 -5 c-4 -13 -9 -17 -15 -11 -11 11 -3 32 12 32 4 0 6 -9 3 -21z
m-2244 -8 c8 -5 9 -11 3 -15 -14 -8 -43 4 -36 15 7 11 15 11 33 0z m-394 -61
l50 -18 -52 5 -53 6 -1 -54 c-1 -58 -10 -44 -23 39 -7 49 -1 51 79 22z m1975
-9 c0 -5 -6 -14 -14 -20 -10 -9 -15 -8 -19 3 -3 8 -1 17 6 20 19 7 27 7 27 -3z
m-70 -6 c-8 -2 -32 -6 -53 -10 l-37 -6 15 -29 c8 -16 15 -33 15 -37 -1 -4 -10
9 -21 31 -25 47 -16 56 51 55 25 -1 38 -3 30 -4z"/>
<path d="M3492 4800 c-30 -16 -37 -17 -67 -4 -70 29 -47 11 49 -37 54 -28 100
-48 102 -46 8 8 -28 107 -39 106 -7 0 -27 -9 -45 -19z"/>
<path d="M3573 4805 c3 -7 11 -32 17 -54 12 -46 22 -49 64 -22 l29 19 -27 25
c-34 32 -91 54 -83 32z"/>
<path d="M3653 4707 c-13 -5 -23 -13 -23 -17 0 -6 128 -50 147 -50 8 0 8 8 0
29 -9 25 -13 27 -29 18 -14 -9 -20 -8 -30 4 -18 23 -39 28 -65 16z"/>
<path d="M3805 4690 c-3 -5 -3 -21 1 -35 7 -28 12 -28 92 6 46 20 55 30 20 22
-14 -3 -18 -1 -11 4 6 5 -11 9 -42 10 -30 2 -57 -2 -60 -7z"/>
<path d="M3610 4582 c0 -49 5 -103 11 -120 l11 -31 139 -3 c76 -2 139 -1 139
1 0 9 -103 171 -109 171 -4 0 -36 -30 -71 -66 -36 -36 -74 -70 -85 -76 -11 -6
17 27 62 74 l83 83 -78 25 c-42 13 -83 26 -89 28 -10 3 -13 -19 -13 -86z m190
-46 c0 -3 -4 -8 -10 -11 -5 -3 -10 -1 -10 4 0 6 5 11 10 11 6 0 10 -2 10 -4z"/>
<path d="M3891 4641 c-44 -18 -44 -18 -15 -24 16 -3 58 -9 93 -13 53 -6 63 -5
56 7 -30 53 -59 59 -134 30z m59 -11 c0 -5 -4 -10 -10 -10 -5 0 -10 5 -10 10
0 6 5 10 10 10 6 0 10 -4 10 -10z"/>
<path d="M4030 4639 c0 -19 56 -48 106 -55 30 -3 57 -5 59 -2 2 2 -34 18 -80
35 -47 17 -85 27 -85 22z"/>
<path d="M2792 4546 c-31 -30 -55 -56 -52 -59 3 -2 47 -20 98 -40 76 -29 93
-33 87 -19 -4 9 -20 52 -37 95 -16 42 -32 77 -35 77 -3 0 -30 -24 -61 -54z"/>
<path d="M3833 4593 c48 -87 90 -153 97 -153 11 0 100 111 100 125 0 6 -37 16
-83 23 -96 14 -120 15 -114 5z"/>
<path d="M4158 4555 c18 -9 37 -13 43 -10 5 4 9 2 9 -3 0 -6 14 -15 30 -21 28
-9 30 -8 30 15 0 22 -3 24 -54 24 -30 0 -63 2 -73 5 -10 3 -3 -2 15 -10z"/>
<path d="M4008 4498 c-32 -34 -57 -63 -55 -64 4 -5 261 58 270 66 8 7 -121 60
-146 60 -6 0 -38 -28 -69 -62z"/>
<path d="M4280 4531 c0 -26 3 -27 90 -35 l75 -6 -75 30 c-88 35 -90 36 -90 11z"/>
<path d="M4209 4476 c-3 -3 -50 -14 -104 -26 -148 -31 -146 -31 -103 -46 20
-7 68 -21 107 -32 l71 -21 30 52 c16 28 26 55 23 60 -3 6 -1 7 5 3 7 -4 12 -2
12 3 0 11 -32 15 -41 7z"/>
<path d="M4237 4418 l-36 -63 75 -3 c41 -2 107 -2 146 0 l72 3 -102 63 c-56
34 -106 62 -110 62 -4 0 -24 -28 -45 -62z"/>
<path d="M4370 4453 c25 -16 71 -44 103 -62 46 -26 57 -29 57 -16 0 9 -4 14
-9 11 -4 -3 -17 1 -27 9 -13 10 -15 14 -5 15 11 0 11 3 0 16 -10 12 -10 17 0
23 8 5 -4 10 -31 14 -24 3 -63 9 -88 13 l-45 6 45 -29z"/>
<path d="M2706 4461 c-9 -14 50 -176 65 -179 8 -1 45 23 82 54 79 66 82 60
-50 105 -100 33 -90 31 -97 20z"/>
<path d="M2659 4424 c-7 -9 -14 -32 -16 -52 -1 -20 -8 -39 -13 -42 -6 -4 15
-18 47 -33 31 -14 59 -24 61 -22 6 5 -49 154 -58 160 -4 3 -14 -2 -21 -11z"/>
<path d="M3940 4402 c0 -6 12 -59 35 -167 3 -11 8 -35 11 -52 3 -18 10 -33 15
-33 9 0 41 34 118 127 l52 62 -73 21 c-40 12 -92 27 -115 35 -24 8 -43 11 -43
7z"/>
<path d="M4633 4403 c4 -3 -8 -17 -25 -30 l-32 -23 72 0 c40 0 72 4 72 10 0 5
-18 19 -40 30 -39 20 -59 26 -47 13z"/>
<path d="M2865 4327 c-38 -33 -70 -65 -70 -71 0 -11 204 -90 212 -83 3 4 -63
207 -70 213 -1 1 -33 -25 -72 -59z"/>
<path d="M4220 4330 c-5 -3 34 -50 85 -105 83 -87 96 -98 108 -85 18 19 97
165 97 179 0 10 -274 21 -290 11z"/>
<path d="M2412 4308 c-32 -20 -38 -39 -26 -86 5 -19 11 -13 35 39 16 34 28 63
26 65 -1 2 -17 -6 -35 -18z"/>
<path d="M4125 4264 c-96 -109 -108 -127 -93 -135 15 -8 335 -15 343 -7 3 2
-39 51 -93 107 l-97 103 -60 -68z"/>
<path d="M4578 4278 c16 -29 42 -77 58 -105 16 -29 31 -53 34 -53 7 1 123 170
132 192 7 17 -2 18 -123 18 l-130 0 29 -52z"/>
<path d="M4496 4251 c-21 -40 -33 -76 -30 -85 4 -11 2 -16 -7 -14 -8 2 -14 -5
-14 -17 0 -19 8 -20 103 -23 l104 -3 -43 78 c-24 43 -50 91 -59 106 l-17 28
-37 -70z"/>
<path d="M4760 4217 c-36 -51 -65 -96 -65 -102 0 -6 54 -14 123 -20 67 -5 122
-7 122 -4 0 16 -100 219 -107 219 -4 -1 -37 -42 -73 -93z"/>
<path d="M2616 4289 c7 -12 -45 -71 -57 -64 -4 3 -5 -4 -2 -16 9 -34 31 -34
104 2 54 26 67 36 57 45 -18 16 -110 46 -102 33z"/>
<path d="M4890 4262 c0 -14 70 -165 74 -161 2 2 11 19 20 37 12 23 13 32 4 30
-8 -2 -13 6 -12 20 0 17 -12 32 -43 53 -23 17 -43 26 -43 21z"/>
<path d="M2672 4195 c-40 -19 -72 -37 -72 -39 0 -6 33 -21 124 -57 l49 -20 -6
61 c-10 95 -11 95 -95 55z"/>
<path d="M2783 4170 c3 -34 8 -64 11 -67 8 -8 100 13 160 36 l48 18 -89 31
c-150 53 -137 54 -130 -18z"/>
<path d="M2351 4165 c-22 -107 -22 -111 3 -53 18 42 22 65 17 85 -7 25 -9 22
-20 -32z"/>
<path d="M2502 4200 c-26 -25 -33 -25 -26 -2 5 14 3 14 -11 -3 -15 -19 -15
-20 9 -23 15 -2 37 -2 50 0 22 3 23 5 12 26 l-12 22 -22 -20z"/>
<path d="M5006 4130 c-15 -23 -26 -43 -24 -44 2 -2 49 -1 106 2 l103 4 -56 30
c-30 16 -61 26 -67 22 -7 -5 -8 -3 -3 6 6 10 4 12 -8 7 -9 -3 -17 -1 -19 5 -2
6 -16 -9 -32 -32z m49 -20 c3 -5 -1 -10 -10 -10 -9 0 -13 5 -10 10 3 6 8 10
10 10 2 0 7 -4 10 -10z"/>
<path d="M2414 4138 c-9 -15 -6 -76 4 -95 6 -9 24 4 67 47 l59 60 -61 0 c-38
0 -65 -5 -69 -12z"/>
<path d="M2921 4109 c-52 -22 -96 -41 -98 -43 -5 -5 281 -75 286 -70 4 4 -78
142 -88 148 -3 2 -48 -14 -100 -35z"/>
<path d="M2492 4067 l-62 -63 64 -17 c35 -9 69 -17 75 -17 7 0 9 21 4 63 -10
105 -10 105 -81 34z"/>
<path d="M2584 4084 c3 -26 6 -62 6 -81 0 -29 3 -34 18 -29 28 11 142 80 142
87 0 9 -137 69 -156 69 -14 0 -16 -8 -10 -46z"/>
<path d="M4020 4105 c0 -9 160 -195 168 -195 15 0 193 173 185 181 -10 10
-353 24 -353 14z"/>
<path d="M4445 4086 c-18 -13 -18 -17 5 -130 19 -91 26 -114 36 -104 6 7 46
63 87 124 l76 111 -67 7 c-97 9 -116 8 -137 -8z"/>
<path d="M2363 4057 c-19 -27 -53 -99 -53 -110 0 -14 34 2 59 27 25 28 28 36
22 73 l-6 43 -22 -33z"/>
<path d="M4680 4086 c0 -17 44 -182 50 -189 7 -8 128 88 152 122 7 9 21 20 31
24 35 13 15 25 -55 31 -40 4 -97 9 -125 12 -29 4 -53 3 -53 0z"/>
<path d="M4581 3959 c-45 -68 -79 -125 -74 -126 11 -4 193 34 200 41 3 3 -6
51 -19 107 l-24 101 -83 -123z"/>
<path d="M4996 4059 c7 -12 212 -169 228 -175 8 -3 16 4 20 18 9 34 7 50 -4
43 -5 -3 -10 -1 -10 4 0 6 6 11 14 11 15 0 29 73 14 78 -4 2 -8 10 -8 18 0 11
-24 14 -130 12 -71 0 -127 -5 -124 -9z"/>
<path d="M4291 3980 c-47 -44 -83 -81 -80 -83 10 -10 231 -68 237 -63 5 6 -24
184 -35 214 -10 25 -41 9 -122 -68z"/>
<path d="M2820 4041 c0 -4 20 -27 45 -51 l44 -43 86 12 c47 7 87 16 90 21 2 4
-30 15 -73 24 -42 9 -103 23 -134 31 -32 7 -58 10 -58 6z"/>
<path d="M2734 3949 c-25 -50 -44 -92 -42 -94 3 -3 189 73 197 81 6 6 -90 104
-101 104 -4 0 -28 -41 -54 -91z"/>
<path d="M5294 4031 c4 -6 3 -11 -2 -11 -12 0 -43 -132 -33 -142 7 -8 131 24
168 43 22 12 21 13 -20 45 -23 19 -48 32 -55 29 -7 -3 -11 -1 -8 3 3 5 -9 17
-26 27 -17 10 -28 13 -24 6z m136 -97 c0 -2 -7 -4 -15 -4 -8 0 -15 4 -15 10 0
5 7 7 15 4 8 -4 15 -8 15 -10z"/>
<path d="M2661 3990 c-30 -16 -58 -35 -62 -42 -6 -10 -13 -41 -34 -168 -4 -23
-4 -23 8 -6 23 36 57 69 64 63 3 -4 -1 -15 -9 -24 -8 -10 -18 -25 -22 -33 -4
-8 4 -1 18 15 14 17 26 33 26 37 0 4 -12 28 -26 54 -33 58 -26 68 11 13 l27
-42 18 28 c10 15 16 35 12 43 -3 9 -1 13 5 9 12 -8 26 20 18 34 -3 5 -1 18 5
29 14 26 6 25 -59 -10z"/>
<path d="M2415 3941 c-3 -25 -8 -61 -11 -78 -3 -18 -1 -33 3 -33 4 0 44 28 88
62 62 49 75 64 60 66 -11 2 -46 9 -77 16 l-57 13 -6 -46z"/>
<path d="M2367 3942 c-24 -25 -26 -33 -18 -55 8 -20 7 -30 -5 -42 -14 -13 -13
-15 11 -13 17 2 27 9 30 23 5 25 13 115 11 115 -1 0 -15 -13 -29 -28z"/>
<path d="M3008 3951 c-43 -10 -80 -20 -83 -22 -5 -5 51 -129 59 -129 4 0 105
132 120 158 9 15 0 15 -96 -7z"/>
<path d="M3063 3878 c-29 -40 -50 -74 -48 -76 3 -3 32 1 66 8 l61 13 -6 45
c-3 25 -6 53 -6 63 0 32 -14 21 -67 -53z"/>
<path d="M2497 3877 c-50 -41 -77 -69 -77 -82 1 -11 20 -42 44 -68 l44 -49 17
25 c13 21 59 227 51 234 -1 1 -37 -26 -79 -60z"/>
<path d="M2785 3878 c-55 -22 -102 -42 -104 -44 -4 -3 98 -134 105 -134 2 0
20 35 40 78 45 96 65 142 62 142 -2 -1 -48 -19 -103 -42z"/>
<path d="M2853 3807 c-28 -56 -50 -103 -48 -105 1 -1 38 16 83 39 74 37 80 42
72 62 -24 62 -41 96 -48 101 -5 3 -32 -41 -59 -97z"/>
<path d="M4050 3816 c-158 -77 -157 -76 -136 -88 27 -15 289 -119 292 -116 4
4 -23 258 -27 262 -2 2 -60 -24 -129 -58z"/>
<path d="M4200 3867 c0 -26 30 -240 34 -245 6 -5 206 170 206 180 0 4 -39 19
-87 33 -49 15 -101 30 -117 36 -37 11 -36 12 -36 -4z"/>
<path d="M4665 3845 c-5 -2 -45 -11 -87 -20 -43 -10 -78 -22 -78 -29 0 -6 17
-30 38 -52 20 -23 52 -59 70 -80 27 -30 36 -35 42 -23 8 13 60 191 60 203 0 6
-29 7 -45 1z"/>
<path d="M4720 3828 c0 -4 -11 -49 -25 -102 -26 -94 -26 -96 -7 -116 21 -22
125 -63 130 -51 1 4 -18 66 -43 136 -41 116 -55 150 -55 133z"/>
<path d="M2650 3800 c-9 -17 -5 -23 31 -45 69 -44 75 -41 34 13 -22 28 -43 51
-47 52 -4 0 -12 -9 -18 -20z"/>
<path d="M3067 3798 c-21 -6 -41 -17 -44 -25 -6 -16 43 -73 63 -73 7 0 20 23
29 51 9 28 19 49 21 46 2 -2 -3 -25 -12 -51 -9 -26 -14 -49 -12 -51 2 -2 17
-1 34 4 36 9 41 35 14 79 -21 34 -31 36 -93 20z"/>
<path d="M2305 3758 c-16 -16 -39 -28 -51 -28 -16 0 -23 -7 -26 -29 -3 -22 -1
-28 8 -23 24 14 105 94 102 100 -2 4 -16 -5 -33 -20z"/>
<path d="M4353 3693 c-54 -48 -97 -89 -96 -92 3 -9 183 -39 187 -32 6 11 18
211 12 211 -3 0 -50 -39 -103 -87z"/>
<path d="M4480 3755 c0 -17 -3 -67 -6 -112 l-7 -81 64 15 c99 24 100 28 29
114 -84 100 -80 97 -80 64z"/>
<path d="M2282 3691 c-41 -38 -69 -71 -64 -75 6 -3 37 -9 70 -12 57 -6 59 -5
65 18 13 49 19 138 11 138 -5 -1 -42 -32 -82 -69z"/>
<path d="M2381 3697 c-14 -78 -14 -97 -1 -97 24 0 120 43 120 53 0 15 -86 107
-99 107 -5 0 -14 -28 -20 -63z"/>
<path d="M2650 3754 c0 -25 34 -124 43 -124 13 0 77 43 77 52 0 3 -17 17 -37
29 -21 13 -48 29 -60 37 -13 8 -23 11 -23 6z"/>
<path d="M2877 3723 l-78 -38 60 -59 59 -59 11 39 c25 98 33 134 29 144 -2 6
-35 -5 -81 -27z"/>
<path d="M3003 3718 c3 -13 11 -49 18 -80 7 -32 15 -58 18 -58 3 0 16 21 28
48 l22 47 -36 33 c-43 38 -57 41 -50 10z"/>
<path d="M2970 3725 c0 -3 -9 -37 -19 -75 -18 -62 -18 -72 -5 -85 19 -19 88
-21 81 -2 -3 6 -13 47 -23 90 -10 42 -22 77 -26 77 -4 0 -8 -2 -8 -5z"/>
<path d="M3770 3649 c-41 -33 -87 -71 -102 -84 -14 -13 -29 -21 -32 -18 -3 4
-6 -1 -6 -11 0 -9 -14 -44 -31 -77 -26 -52 -27 -60 -12 -55 10 3 78 19 152 37
149 36 149 34 2 71 -123 31 -83 34 50 4 62 -14 115 -24 117 -22 3 4 -24 164
-34 199 -8 27 -24 20 -104 -44z"/>
<path d="M3891 3683 c1 -30 47 -196 48 -175 1 19 62 42 82 32 10 -6 34 -3 65
10 122 46 121 35 4 86 -58 24 -119 51 -137 59 -47 23 -63 19 -62 -12z"/>
<path d="M3120 3679 c-28 -10 -77 -112 -56 -117 6 -1 40 6 75 16 l64 18 -46
34 c-60 43 -53 52 8 10 l46 -31 -6 28 c-4 15 -8 34 -11 41 -4 14 -38 15 -74 1z"/>
<path d="M2745 3645 c-22 -19 -37 -36 -34 -39 8 -8 158 -38 169 -34 6 2 -13
26 -42 55 l-53 52 -40 -34z"/>
<path d="M2421 3593 l-45 -16 30 -24 c52 -42 62 -46 56 -17 -3 20 0 26 17 31
24 6 25 37 1 40 -8 1 -35 -5 -59 -14z"/>
<path d="M2210 3575 c0 -8 8 -15 18 -15 23 -1 54 -25 44 -35 -4 -4 5 0 21 10
37 24 34 41 -10 49 -58 9 -73 7 -73 -9z"/>
<path d="M2706 3566 c4 -12 16 -43 28 -70 l21 -48 64 43 c35 25 65 48 65 54 1
10 -37 20 -127 33 -55 8 -57 8 -51 -12z"/>
<path d="M3177 3553 c-20 -14 -36 -28 -33 -30 7 -7 95 40 90 49 -8 12 -15 9
-57 -19z"/>
<path d="M4550 3562 c-30 -7 -58 -17 -62 -21 -4 -3 10 -33 32 -66 l39 -59 11
30 c6 16 21 48 32 72 13 25 18 45 12 50 -5 5 -34 2 -64 -6z"/>
<path d="M3097 3554 c-47 -15 -47 -15 -31 -39 l16 -25 44 36 c24 20 44 38 44
40 0 7 -24 3 -73 -12z"/>
<path d="M4240 3564 c0 -30 45 -184 55 -188 14 -5 130 135 130 157 0 7 -26 17
-65 23 -75 14 -120 17 -120 8z"/>
<path d="M4676 3561 c-11 -17 -2 -112 10 -107 6 2 37 21 70 42 l59 38 -30 12
c-48 19 -102 27 -109 15z"/>
<path d="M4125 3539 c-22 -10 -30 -17 -18 -14 14 4 25 0 31 -11 7 -12 11 -13
17 -4 4 7 2 17 -6 22 -11 8 -10 9 3 5 9 -3 22 1 28 9 17 20 -5 18 -55 -7z"/>
<path d="M4192 3523 c-13 -19 -21 -37 -18 -41 3 -3 6 0 6 6 0 6 6 9 14 6 7 -3
13 -13 12 -22 0 -9 7 -18 17 -20 16 -3 17 1 11 35 -13 72 -17 75 -42 36z"/>
<path d="M2301 3515 c-18 -19 -28 -35 -22 -35 20 0 33 -69 20 -112 -4 -16 -4
-28 1 -28 4 0 10 10 13 23 10 42 29 179 25 183 -2 2 -19 -12 -37 -31z"/>
<path d="M2355 3498 c-3 -29 -9 -66 -12 -81 -4 -26 -3 -28 14 -18 11 5 25 17
33 25 7 9 19 16 26 16 8 0 14 4 14 9 0 5 9 7 20 4 35 -9 23 23 -24 61 -23 20
-48 36 -54 36 -5 0 -13 -24 -17 -52z"/>
<path d="M3280 3525 c-25 -13 -53 -24 -62 -25 -30 0 -20 -20 10 -20 35 0 71
19 90 48 18 27 18 27 -38 -3z"/>
<path d="M4628 3525 c-9 -16 -23 -47 -32 -68 l-16 -39 33 7 c17 4 35 10 38 14
3 3 3 31 0 61 l-6 55 -17 -30z"/>
<path d="M2886 3454 c-20 -47 -36 -90 -36 -94 0 -10 194 107 198 119 2 7 -105
61 -121 61 -3 0 -21 -39 -41 -86z"/>
<path d="M3004 3520 c43 -21 56 -20 36 5 -7 8 -27 15 -44 15 l-31 -1 39 -19z"/>
<path d="M2827 3482 l-67 -49 34 -47 33 -47 37 92 c20 50 35 93 33 95 -2 3
-34 -17 -70 -44z"/>
<path d="M4449 3510 c-25 -14 -112 -130 -97 -130 7 0 44 6 81 14 38 8 75 12
82 10 7 -3 15 -2 18 3 6 10 -15 40 -27 39 -5 -1 -10 9 -11 22 -2 32 -26 53
-46 42z"/>
<path d="M3145 3499 c-16 -6 -14 -8 13 -8 33 -1 41 4 20 12 -7 2 -22 1 -33 -4z"/>
<path d="M3098 3463 c6 -2 18 -2 25 0 6 3 1 5 -13 5 -14 0 -19 -2 -12 -5z"/>
<path d="M3132 3450 c-19 -12 -31 -16 -27 -10 3 5 1 10 -4 10 -12 0 -14 -124
-2 -154 6 -15 20 -4 89 72 45 49 82 92 82 96 0 16 -107 5 -138 -14z"/>
<path d="M3025 3437 c-16 -11 -47 -36 -67 -54 l-37 -32 42 -25 c23 -14 60 -32
81 -41 l39 -17 -6 82 c-8 106 -13 115 -52 87z"/>
<path d="M3305 3416 c-4 -23 -3 -72 2 -109 l8 -66 109 70 c59 38 106 72 104
74 -8 8 -139 55 -178 64 l-39 9 -6 -42z"/>
<path d="M3850 3441 c0 -10 26 -9 36 2 4 4 -2 7 -14 7 -12 0 -22 -4 -22 -9z"/>
<path d="M3191 3351 l-82 -89 48 -10 c27 -6 64 -13 84 -17 l36 -7 6 54 c10 77
8 158 -2 158 -5 0 -45 -40 -90 -89z"/>
<path d="M3758 3428 c-27 -6 -48 -15 -48 -20 0 -6 -7 -8 -15 -4 -9 3 -38 0
-66 -6 l-51 -12 53 -27 c30 -15 59 -24 66 -22 7 3 13 1 13 -4 0 -4 9 -14 20
-21 25 -15 67 -6 80 18 8 15 6 17 -10 13 -11 -3 -20 0 -20 6 0 11 13 15 38 12
6 -1 12 5 12 14 0 8 -6 15 -12 15 -7 0 -5 5 5 11 9 5 17 17 17 24 0 17 -14 17
-82 3z"/>
<path d="M4240 3411 c0 -17 4 -32 8 -35 4 -2 6 11 4 30 -5 42 -12 45 -12 5z"/>
<path d="M3550 3328 c-13 -64 -13 -68 7 -68 9 0 27 -9 39 -21 l21 -20 54 32
c30 17 55 32 57 34 2 2 -35 23 -82 47 l-85 45 -11 -49z m80 -2 c0 -3 -4 -8
-10 -11 -5 -3 -10 -1 -10 4 0 6 5 11 10 11 6 0 10 -2 10 -4z m10 -76 c0 -5 -4
-10 -10 -10 -5 0 -10 5 -10 10 0 6 5 10 10 10 6 0 10 -4 10 -10z"/>
<path d="M3427 3291 c-96 -67 -105 -76 -86 -83 12 -5 24 -6 27 -3 3 3 0 5 -6
5 -7 0 -12 5 -12 10 0 6 9 10 20 10 11 0 45 9 75 19 38 14 55 16 56 8 0 -7 9
13 20 43 11 30 18 57 17 60 -2 3 -52 -28 -111 -69z"/>
<path d="M2362 3338 c-14 -14 -16 -48 -3 -48 24 0 61 21 61 35 0 8 -4 15 -9
15 -5 0 -15 2 -23 5 -7 3 -19 0 -26 -7z"/>
<path d="M2464 3342 c4 -7 1 -12 -7 -12 -14 0 -32 -28 -23 -37 7 -7 46 21 46
34 0 6 -5 15 -12 19 -7 4 -8 3 -4 -4z"/>
<path d="M2884 3316 c-3 -8 -3 -19 0 -25 4 -5 2 -12 -4 -16 -5 -3 -10 -26 -10
-51 0 -31 4 -43 11 -38 6 4 52 21 101 39 l90 32 -63 30 c-87 40 -118 47 -125
29z m30 -5 c3 -5 -1 -11 -9 -15 -9 -3 -15 0 -15 9 0 16 16 20 24 6z"/>
<path d="M2320 3274 c0 -8 5 -12 10 -9 6 4 8 11 5 16 -9 14 -15 11 -15 -7z"/>
<path d="M2213 3263 c-8 -2 -13 -22 -13 -45 0 -35 2 -39 16 -28 23 20 35 47
28 64 -6 17 -11 18 -31 9z"/>
<path d="M2821 3229 c-21 -17 -22 -22 -10 -30 30 -19 49 -10 49 21 0 35 -6 37
-39 9z"/>
<path d="M3084 3191 c-8 -31 -20 -69 -25 -85 -12 -40 -13 -39 21 -19 17 9 30
21 30 25 0 4 5 8 12 8 11 0 140 81 135 86 -1 1 -37 11 -80 22 l-77 20 -16 -57z"/>
<path d="M2968 3206 c-49 -17 -88 -33 -88 -36 1 -9 130 -105 138 -102 7 3 23
44 47 125 17 56 21 55 -97 13z"/>
<path d="M2233 3187 c-26 -38 -28 -47 -10 -47 17 0 40 42 35 64 -2 12 -9 7
-25 -17z"/>
<path d="M2752 3154 c-13 -20 -22 -37 -20 -39 2 -1 28 11 58 28 51 29 53 32
30 38 -41 11 -44 10 -68 -27z"/>
<path d="M3328 3178 c5 -5 16 -8 23 -6 8 3 3 7 -10 11 -17 4 -21 3 -13 -5z"/>
<path d="M2794 3131 c-82 -45 -97 -58 -100 -90 -3 -27 1 -33 32 -46 20 -8 42
-15 48 -15 9 0 79 170 73 177 -1 1 -25 -10 -53 -26z"/>
<path d="M2832 3070 c-17 -49 -28 -90 -24 -90 4 0 49 14 100 31 l94 31 -63 59
c-35 32 -67 58 -71 59 -3 0 -20 -40 -36 -90z"/>
<path d="M2700 3109 c0 -5 5 -7 10 -4 6 3 10 8 10 11 0 2 -4 4 -10 4 -5 0 -10
-5 -10 -11z"/>
<path d="M3295 3060 c-3 -6 1 -7 9 -4 18 7 21 14 7 14 -6 0 -13 -4 -16 -10z"/>
<path d="M3070 3050 c-13 -8 -12 -10 3 -10 9 0 17 5 17 10 0 12 -1 12 -20 0z"/>
<path d="M2903 2988 c-73 -21 -86 -31 -57 -42 8 -3 13 -2 10 3 -3 5 5 9 17 9
13 0 48 11 78 26 64 31 50 32 -48 4z"/>
<path d="M3128 2993 c10 -4 9 -9 -5 -19 -16 -13 -15 -13 9 -3 29 13 29 30 0
28 -11 0 -13 -2 -4 -6z"/>
<path d="M2688 2956 l4 -34 36 21 36 21 -30 13 c-45 19 -50 16 -46 -21z"/>
<path d="M2976 2975 c-9 -26 -7 -32 5 -12 6 10 9 21 6 23 -2 3 -7 -2 -11 -11z"/>
<path d="M2790 2940 c0 -5 5 -10 11 -10 5 0 7 5 4 10 -3 6 -8 10 -11 10 -2 0
-4 -4 -4 -10z"/>
<path d="M2996 2935 c-3 -9 -6 -22 -5 -28 0 -7 5 -1 10 12 5 13 8 26 5 28 -2
2 -6 -3 -10 -12z"/>
<path d="M3038 2934 c-39 -21 -35 -28 5 -8 37 19 44 24 31 24 -5 -1 -21 -8
-36 -16z"/>
<path d="M2727 2924 c-27 -15 -28 -16 -10 -29 26 -20 30 -19 42 15 11 34 8 36
-32 14z"/>
<path d="M1445 2770 c-3 -5 1 -10 9 -10 9 0 16 5 16 10 0 6 -4 10 -9 10 -6 0
-13 -4 -16 -10z"/>
<path d="M1430 2730 c0 -5 7 -10 15 -10 8 0 15 5 15 10 0 6 -7 10 -15 10 -8 0
-15 -4 -15 -10z"/>
<path d="M1426 2664 c-8 -21 -3 -26 18 -18 18 7 17 25 -1 31 -6 2 -13 -4 -17
-13z"/>
<path d="M1425 2621 c3 -5 23 -24 45 -41 41 -32 44 -24 10 28 -14 20 -68 33
-55 13z"/>
<path d="M1518 2605 c-9 -10 4 -57 18 -62 8 -3 26 -2 42 2 l27 7 -27 19 c-15
11 -30 19 -34 19 -4 -1 -10 3 -14 9 -3 6 -9 9 -12 6z"/>
<path d="M1416 2583 c-10 -10 -7 -25 4 -18 6 3 10 1 10 -5 0 -6 4 -9 9 -6 5 3
14 -1 21 -9 7 -8 17 -15 23 -15 12 0 -21 38 -44 51 -9 4 -19 5 -23 2z"/>
<path d="M1573 2528 c-18 -5 -33 -11 -33 -13 0 -3 15 -28 33 -57 l32 -53 6 60
c3 33 3 63 0 66 -3 3 -21 2 -38 -3z"/>
<path d="M1632 2490 c0 -14 2 -19 5 -12 2 6 2 18 0 25 -3 6 -5 1 -5 -13z"/>
<path d="M1546 2445 c4 -8 11 -15 16 -15 6 0 5 6 -2 15 -7 8 -14 15 -16 15 -2
0 -1 -7 2 -15z"/>
<path d="M1556 2404 c-8 -21 -1 -28 19 -20 9 3 15 11 13 18 -7 19 -25 20 -32
2z"/>
<path d="M1630 2371 c0 -6 4 -13 10 -16 6 -3 7 1 4 9 -7 18 -14 21 -14 7z"/>
<path d="M1545 2361 c-35 -8 -35 -21 2 -70 29 -38 33 -35 47 42 7 40 7 40 -49
28z"/>
<path d="M1405 2332 c-2 -3 5 -22 16 -44 23 -45 33 -41 43 15 7 37 7 37 -24
35 -17 -1 -33 -4 -35 -6z"/>
<path d="M1616 2329 c3 -10 1 -20 -5 -24 -13 -7 -15 -45 -3 -45 12 0 32 22 32
35 0 6 -7 20 -15 31 -11 14 -14 15 -9 3z"/>
<path d="M1330 2320 c0 -5 8 -6 18 -3 14 6 15 4 4 -9 -11 -13 -10 -22 2 -50
l14 -33 1 53 c1 46 -1 52 -19 52 -11 0 -20 -4 -20 -10z"/>
<path d="M1481 2295 c-8 -30 -8 -42 2 -51 12 -12 77 -8 77 5 -1 3 -16 24 -34
45 l-34 40 -11 -39z m39 -39 c0 -3 -4 -8 -10 -11 -5 -3 -10 -1 -10 4 0 6 5 11
10 11 6 0 10 -2 10 -4z"/>
<path d="M1386 2265 c-8 -40 -2 -57 19 -49 23 9 26 35 6 60 l-19 24 -6 -35z"/>
<path d="M1636 2223 c-6 -14 -5 -15 5 -6 7 7 10 15 7 18 -3 3 -9 -2 -12 -12z"/>
<path d="M1580 2210 c0 -6 7 -10 15 -10 8 0 15 2 15 4 0 2 -7 6 -15 10 -8 3
-15 1 -15 -4z"/>
<path d="M1521 2201 c-8 -5 -9 -11 -3 -15 5 -3 12 1 16 9 6 17 6 18 -13 6z"/>
<path d="M1557 2203 c-4 -3 -7 -11 -7 -17 0 -6 5 -5 12 2 6 6 9 14 7 17 -3 3
-9 2 -12 -2z"/>
<path d="M1465 2180 c-3 -5 3 -10 15 -10 12 0 18 5 15 10 -3 6 -10 10 -15 10
-5 0 -12 -4 -15 -10z"/>
<path d="M1443 2123 c-7 -2 -13 -8 -13 -13 0 -8 67 4 77 14 8 7 -47 7 -64 -1z"/>
<path d="M1568 2113 c-11 -3 -18 -14 -18 -29 l0 -25 30 21 c16 11 31 24 34 28
5 9 -20 11 -46 5z"/>
<path d="M1485 2090 c4 -6 -7 -8 -27 -5 -24 3 -20 0 15 -11 27 -9 51 -13 54
-10 11 11 -7 36 -27 36 -12 0 -18 -4 -15 -10z"/>
<path d="M1409 2053 c28 -52 33 -54 76 -34 l40 17 -49 17 c-65 22 -80 22 -67
0z"/>
<path d="M1478 1909 c2 -16 8 -29 12 -29 9 0 1 48 -9 55 -4 2 -5 -9 -3 -26z"/>
<path d="M1487 1619 c-5 -19 -2 -21 25 -15 17 3 44 6 60 6 16 0 27 4 23 10 -3
5 -19 7 -34 4 -16 -3 -38 -1 -49 5 -17 9 -21 7 -25 -10z"/>
<path d="M1492 1582 c-20 -6 -14 -26 19 -55 49 -43 59 -38 84 41 6 22 5 23
-42 21 -26 -1 -54 -4 -61 -7z"/>
<path d="M1604 1544 c-22 -52 -13 -67 33 -58 91 17 90 16 40 57 -25 20 -48 37
-52 37 -3 0 -13 -16 -21 -36z"/>
<path d="M1670 1573 c0 -4 13 -17 28 -28 l27 -19 -16 24 c-16 24 -39 38 -39
23z"/>
<path d="M1803 1547 c-24 -6 -43 -15 -43 -20 0 -4 10 -5 23 -1 43 13 67 24 67
29 0 3 -1 4 -2 4 -2 -1 -22 -7 -45 -12z"/>
<path d="M1460 1539 c0 -5 -4 -8 -9 -5 -7 5 -21 -37 -21 -63 0 -7 75 -3 99 5
10 3 5 14 -19 39 -35 36 -50 43 -50 24z"/>
<path d="M1880 1525 c-11 -13 -10 -14 4 -9 9 3 16 10 16 15 0 13 -6 11 -20 -6z"/>
<path d="M1805 1470 c-7 -12 2 -12 30 0 19 8 19 9 -2 9 -12 1 -25 -3 -28 -9z"/>
<path d="M1878 1473 c-9 -2 -16 -10 -14 -16 1 -7 1 -9 -1 -5 -5 9 -54 0 -67
-13 -8 -7 23 -18 115 -38 25 -6 54 -14 65 -18 12 -4 4 11 -24 45 -24 29 -47
51 -50 51 -4 -1 -15 -3 -24 -6z"/>
<path d="M1710 1449 c0 -5 5 -7 10 -4 6 3 10 8 10 11 0 2 -4 4 -10 4 -5 0 -10
-5 -10 -11z"/>
<path d="M1398 1433 c6 -2 18 -2 25 0 6 3 1 5 -13 5 -14 0 -19 -2 -12 -5z"/>
<path d="M1620 1425 c-11 -13 -8 -14 21 -9 47 9 60 24 22 24 -17 0 -36 -7 -43
-15z"/>
<path d="M1430 1403 c-13 -14 -23 -37 -23 -53 0 -16 -4 -27 -8 -25 -3 3 -9 -5
-13 -18 -9 -33 -8 -37 10 -37 14 0 14 -3 3 -16 -11 -13 -8 -19 16 -40 29 -25
51 -32 39 -13 -5 8 1 10 19 7 17 -3 24 -1 21 7 -3 7 8 26 25 43 l30 30 -41 -9
c-55 -13 -60 -3 -6 12 55 16 55 16 32 35 -18 15 -18 15 3 5 32 -16 33 -15 33
30 0 40 -1 41 -29 37 -17 -2 -29 0 -28 5 1 6 -12 13 -29 17 -25 6 -35 2 -54
-17z"/>
<path d="M1544 1419 c12 -8 25 -8 40 -1 18 9 16 11 -19 11 -33 0 -37 -1 -21
-10z"/>
<path d="M1679 1416 c-4 -4 -45 -11 -91 -15 -13 -1 -9 -71 3 -71 12 0 89 57
101 74 4 6 10 7 14 3 4 -4 -3 -15 -16 -24 -14 -10 -38 -30 -55 -45 l-30 -27
98 -1 c53 0 97 2 97 5 0 10 -40 84 -47 88 -14 8 -69 18 -74 13z"/>
<path d="M1783 1409 c-9 -9 -6 -23 10 -55 11 -24 24 -44 28 -44 4 0 37 11 74
25 38 15 75 23 84 20 12 -5 13 -3 5 5 -7 7 -45 20 -85 31 -41 11 -81 21 -89
24 -9 3 -21 0 -27 -6z"/>
<path d="M1940 1342 c-8 -2 -31 -11 -50 -19 -31 -14 -33 -16 -15 -23 17 -7 15
-9 -12 -9 l-32 -1 20 -35 c12 -19 25 -35 30 -35 5 0 8 -3 8 -7 -4 -26 2 -32
24 -24 93 36 105 43 100 61 -3 11 -15 21 -27 23 -11 2 0 5 27 6 26 0 47 4 47
7 0 3 -9 19 -20 34 -20 28 -58 36 -100 22z m3 -59 c-7 -2 -21 -2 -30 0 -10 3
-4 5 12 5 17 0 24 -2 18 -5z"/>
<path d="M1796 1264 c-4 -10 0 -18 12 -21 10 -2 24 -17 31 -34 7 -16 16 -29
21 -29 4 0 -3 23 -17 50 -26 53 -37 60 -47 34z"/>
<path d="M2012 1219 c-18 -6 -35 -16 -38 -23 -3 -8 -13 -12 -24 -9 -10 3 -20
0 -24 -5 -3 -6 17 -12 52 -16 86 -8 88 -7 88 31 -1 35 -3 36 -54 22z"/>
<path d="M1388 1175 c-3 -27 -1 -34 10 -30 7 3 22 5 33 5 26 0 23 11 -10 37
l-29 23 -4 -35z"/>
<path d="M1850 1124 c-9 -25 -16 -34 -27 -29 -13 4 -14 3 -3 -10 7 -8 20 -15
30 -15 14 0 19 10 22 45 4 54 -6 58 -22 9z"/>
<path d="M1940 1155 c0 -8 52 -28 78 -30 29 -1 39 12 15 18 -37 11 -93 18 -93
12z"/>
<path d="M1891 1103 c0 -27 3 -42 6 -35 2 6 9 10 14 7 4 -3 23 2 41 12 18 9
36 16 41 15 4 -1 7 0 7 3 0 6 -87 45 -101 45 -5 0 -9 -21 -8 -47z"/>
<path d="M1394 1124 c-12 -5 -7 -54 5 -54 4 0 17 14 29 30 l23 30 -23 -1 c-13
0 -28 -3 -34 -5z"/>
<path d="M1530 1102 c0 -5 7 -15 15 -22 8 -7 15 -8 15 -2 0 5 -7 15 -15 22 -8
7 -15 8 -15 2z"/>
<path d="M1636 1048 c-14 -23 -23 -44 -22 -46 4 -3 217 38 223 42 2 1 -18 12
-43 24 -25 12 -43 18 -39 13 3 -6 -6 -9 -22 -7 -16 1 -39 -1 -52 -6 -19 -7
-22 -5 -17 7 10 28 -3 15 -28 -27z"/>
<path d="M1566 1061 c-3 -5 3 -20 13 -32 l19 -24 11 28 c6 16 11 29 11 30 0 8
-50 5 -54 -2z"/>
<path d="M1740 1000 l-25 -8 25 -1 c14 0 32 4 40 9 13 9 13 10 0 9 -8 -1 -26
-5 -40 -9z"/>
<path d="M1619 978 c-2 -4 -7 -48 -5 -48 0 1 35 9 75 19 l75 18 -48 6 c-50 7
-95 9 -97 5z"/>
<path d="M1508 893 c7 -3 16 -2 19 1 4 3 -2 6 -13 5 -11 0 -14 -3 -6 -6z"/>
<path d="M2458 893 c12 -2 30 -2 40 0 9 3 -1 5 -23 4 -22 0 -30 -2 -17 -4z"/>
<path d="M2218 2620 c-11 -38 -10 -56 3 -43 6 6 9 23 7 39 l-3 29 -7 -25z"/>
<path d="M2226 2541 c-4 -7 -5 -15 -2 -18 9 -9 19 4 14 18 -4 11 -6 11 -12 0z"/>
<path d="M2150 2466 c-18 -27 -29 -47 -24 -45 28 12 102 74 98 81 -3 5 -12 4
-19 -2 -10 -8 -14 -8 -17 2 -2 6 -19 -10 -38 -36z"/>
<path d="M1990 2260 c0 -5 10 -10 23 -10 18 0 19 2 7 10 -19 13 -30 13 -30 0z"/>
<path d="M1879 2090 c-1 -3 -3 -15 -4 -28 -2 -22 -1 -22 13 -8 13 12 14 19 4
28 -7 7 -13 10 -13 8z"/>
<path d="M1885 2031 c-15 -29 -14 -30 16 -36 17 -4 33 -5 35 -2 6 5 -23 67
-31 67 -2 0 -11 -13 -20 -29z"/>
<path d="M2065 2032 c-17 -15 -41 -34 -54 -42 -23 -15 -23 -16 38 -44 33 -16
63 -27 66 -24 8 7 -6 138 -14 138 -3 0 -20 -13 -36 -28z m5 -41 c0 -6 -4 -13
-10 -16 -5 -3 -10 1 -10 9 0 9 5 16 10 16 6 0 10 -4 10 -9z"/>
<path d="M1858 1955 c-6 -29 -4 -30 41 -6 33 18 33 18 10 24 -39 11 -46 8 -51
-18z"/>
<path d="M1883 1922 c-20 -9 -33 -23 -33 -34 0 -26 12 -22 45 12 35 36 31 43
-12 22z"/>
<path d="M3190 1985 c0 -23 4 -26 28 -23 19 2 27 9 27 23 0 14 -8 21 -27 23
-24 3 -28 0 -28 -23z"/>
<path d="M3190 1920 c0 -25 4 -30 24 -30 33 0 53 25 36 45 -7 8 -23 15 -36 15
-20 0 -24 -5 -24 -30z"/>
<path d="M4400 1985 c0 -23 4 -26 28 -23 19 2 27 9 27 23 0 14 -8 21 -27 23
-24 3 -28 0 -28 -23z"/>
<path d="M4536 1978 c-10 -39 -7 -48 18 -48 23 0 24 2 13 35 -12 40 -22 44
-31 13z"/>
</g>
</svg>
